<?xml version="1.0" standalone="no"?>
<!DOCTYPE svg PUBLIC "-//W3C//DTD SVG 20010904//EN"
 "http://www.w3.org/TR/2001/REC-SVG-20010904/DTD/svg10.dtd">
<svg version="1.0" xmlns="http://www.w3.org/2000/svg"
 width="8001.000000pt" height="2146.000000pt" viewBox="0 0 8001.000000 2146.000000"
 preserveAspectRatio="xMidYMid meet">
<metadata>
Created by potrace 1.16, written by Peter Selinger 2001-2019
</metadata>
<g transform="translate(0.000000,2146.000000) scale(0.100000,-0.100000)"
fill="#000000" stroke="none">
<path d="M15205 19603 c-746 -62 -1380 -349 -1890 -858 -485 -483 -771 -1067
-861 -1760 -16 -119 -17 -298 -16 -2075 1 -1070 5 -2039 8 -2155 l6 -210 -459
456 c-252 250 -912 907 -1468 1459 -555 552 -1035 1034 -1065 1070 -155 184
-265 420 -316 675 -27 135 -25 405 4 541 64 299 183 523 403 757 l82 89 -532
531 -532 532 -112 -115 c-340 -348 -593 -783 -728 -1250 -128 -447 -148 -962
-54 -1424 96 -474 318 -935 628 -1306 68 -81 629 -647 1587 -1600 l1483 -1475
-784 -6 c-431 -3 -1373 -7 -2094 -7 -1422 -2 -1403 -3 -1597 53 -555 159 -978
650 -1053 1222 -8 63 -15 159 -15 214 l0 99 -207 0 c-115 0 -454 -3 -755 -7
l-547 -6 5 -146 c17 -533 133 -978 365 -1397 421 -760 1159 -1307 1997 -1479
311 -64 136 -60 2527 -56 l2170 4 -1429 -1437 c-786 -790 -1459 -1465 -1497
-1501 -213 -200 -503 -335 -814 -376 -120 -16 -353 -6 -472 20 -275 60 -496
176 -717 378 -60 54 -111 98 -115 98 -3 0 -244 -239 -534 -531 l-528 -531 115
-110 c235 -227 463 -388 746 -529 1098 -546 2427 -363 3332 460 57 52 751 746
1543 1543 l1440 1450 7 -2041 c5 -1123 5 -2077 2 -2121 -31 -468 -275 -888
-659 -1140 -240 -158 -473 -231 -767 -242 l-158 -6 0 -753 0 -754 98 0 c681 0
1345 229 1865 643 553 439 934 1059 1070 1737 55 272 52 151 51 2499 l-1 2183
516 -514 c284 -282 955 -950 1491 -1484 688 -686 992 -994 1032 -1050 117
-163 191 -322 239 -510 125 -495 -13 -1005 -373 -1379 l-97 -101 535 -535 536
-534 100 105 c492 517 775 1127 839 1813 17 181 7 543 -20 717 -87 565 -321
1075 -692 1505 -47 55 -749 759 -1560 1565 l-1474 1465 300 6 c165 4 1115 7
2110 8 1972 2 1866 5 2070 -54 388 -112 723 -392 907 -758 52 -103 113 -288
133 -402 8 -49 18 -155 22 -234 l6 -144 81 7 c45 3 381 6 749 6 l667 0 0 144
c0 231 -32 487 -90 711 -293 1139 -1231 2001 -2385 2194 -264 44 -254 44
-2470 37 l-2110 -7 231 233 c1168 1182 2742 2754 2798 2795 208 153 434 247
684 283 108 16 390 7 492 -15 283 -62 519 -187 723 -384 l108 -105 400 400
c220 219 460 461 532 538 l132 139 -111 106 c-462 445 -1008 713 -1654 812
-194 30 -617 33 -809 6 -562 -80 -1052 -290 -1488 -638 -49 -38 -764 -749
-1599 -1586 l-1511 -1517 -7 2085 c-7 1898 -6 2094 9 2192 51 341 194 618 441
857 159 154 346 268 547 335 159 53 237 66 420 72 l167 6 0 753 0 754 -142 -2
c-79 -1 -161 -3 -183 -5z"/>
<path d="M25798 17205 c-407 -66 -749 -373 -848 -762 -48 -184 -47 -414 0
-599 27 -101 104 -260 168 -344 65 -86 180 -194 269 -253 314 -209 781 -234
1126 -61 112 56 187 112 287 214 203 206 290 431 290 750 0 326 -99 564 -322
776 -151 144 -306 225 -512 270 -99 22 -348 27 -458 9z"/>
<path d="M47010 11180 l0 -5760 890 0 890 0 0 5760 0 5760 -890 0 -890 0 0
-5760z"/>
<path d="M32465 13940 c-288 -18 -621 -74 -860 -145 -394 -116 -768 -311
-1078 -560 -122 -98 -310 -282 -406 -397 -36 -43 -66 -76 -67 -75 -2 2 -194
1070 -194 1080 0 4 -351 7 -780 7 l-780 0 0 -4215 0 -4215 895 0 895 0 0 2223
c0 1413 4 2273 10 2362 58 788 301 1395 731 1826 309 309 690 489 1170 555
149 21 496 24 639 6 409 -52 724 -181 987 -404 364 -308 597 -807 677 -1448
34 -272 36 -437 36 -2782 l0 -2338 900 0 900 0 0 2458 c0 2449 -2 2619 -36
2947 -97 960 -396 1691 -893 2185 -528 525 -1199 830 -2011 914 -183 19 -552
27 -735 16z"/>
<path d="M41667 13939 c-721 -43 -1347 -277 -1882 -705 -138 -110 -415 -387
-520 -521 -44 -56 -81 -101 -82 -100 0 1 -47 270 -102 597 -56 327 -104 605
-106 618 l-5 22 -780 0 -780 0 0 -5860 0 -5860 895 0 895 0 2 2225 3 2225 69
-93 c86 -113 370 -400 486 -489 482 -370 1007 -577 1660 -654 185 -21 645 -30
840 -15 565 43 1033 169 1500 402 391 196 685 411 990 725 584 600 972 1423
1104 2339 66 454 74 1067 20 1535 -86 750 -313 1401 -689 1970 -383 581 -907
1023 -1549 1306 -586 258 -1276 375 -1969 333z m283 -1534 c528 -62 962 -263
1324 -614 547 -532 816 -1242 816 -2156 0 -760 -186 -1374 -571 -1885 -490
-651 -1194 -967 -2048 -919 -579 32 -1054 233 -1447 611 -519 499 -803 1196
-833 2043 -27 773 123 1392 459 1898 243 366 537 628 905 807 225 110 474 182
743 215 150 18 499 18 652 0z"/>
<path d="M53575 13943 c-922 -36 -1655 -243 -2250 -634 -509 -335 -853 -762
-1052 -1309 -63 -172 -133 -480 -156 -687 l-5 -43 878 0 878 0 7 43 c23 138
119 358 216 497 70 101 223 250 339 332 303 215 666 329 1134 358 500 31 984
-61 1319 -252 369 -210 594 -517 678 -925 20 -97 23 -145 27 -470 l4 -362
-1314 -4 c-1350 -4 -1348 -4 -1704 -47 -647 -79 -1214 -266 -1629 -537 -601
-393 -943 -938 -1052 -1678 -26 -175 -25 -672 0 -835 93 -581 350 -1031 792
-1384 460 -367 1025 -579 1767 -663 194 -22 813 -25 983 -5 674 79 1210 294
1677 674 207 169 452 435 603 656 l50 72 8 -82 c32 -335 87 -523 212 -715 163
-251 413 -403 785 -477 205 -41 310 -46 922 -46 l578 0 0 774 0 774 -242 5
c-186 4 -257 9 -303 22 -180 51 -290 166 -342 357 -16 58 -18 214 -23 1978 -7
2072 -4 1976 -61 2275 -107 570 -327 1015 -684 1384 -315 326 -696 560 -1175
723 -513 174 -1188 258 -1865 231z m2012 -5040 c-9 -442 -68 -723 -217 -1032
-268 -554 -755 -934 -1387 -1081 -424 -99 -953 -105 -1313 -15 -289 72 -488
181 -675 370 -214 215 -305 445 -305 769 0 693 426 1106 1263 1226 161 23 352
27 1481 29 l1159 1 -6 -267z"/>
<path d="M62595 13944 c-1306 -59 -2382 -566 -3103 -1463 -477 -593 -766
-1321 -873 -2197 -26 -219 -37 -803 -20 -1046 66 -896 323 -1663 776 -2307
173 -247 455 -548 690 -735 124 -99 375 -268 510 -343 461 -257 980 -424 1534
-493 437 -55 935 -55 1368 0 1030 131 1856 575 2448 1315 334 417 584 972 709
1574 20 94 36 178 36 186 0 13 -114 15 -908 15 l-909 0 -23 -87 c-136 -520
-433 -939 -855 -1208 -457 -291 -1123 -388 -1738 -255 -379 82 -739 282 -1024
567 -466 469 -730 1112 -783 1908 -51 777 109 1490 453 2019 394 606 945 947
1641 1017 166 16 526 6 671 -20 213 -37 375 -87 553 -172 503 -239 876 -678
1047 -1235 20 -65 38 -125 41 -131 3 -10 195 -13 919 -13 838 0 915 1 915 16
0 30 -50 267 -81 384 -185 702 -526 1287 -1015 1741 -598 557 -1358 872 -2289
949 -140 11 -559 20 -690 14z"/>
<path d="M71107 13939 c-1956 -107 -3394 -1407 -3726 -3369 -102 -601 -102
-1283 -1 -1875 86 -502 251 -971 488 -1390 73 -129 244 -381 339 -500 107
-134 332 -367 468 -484 619 -534 1404 -863 2300 -965 355 -41 902 -46 1206
-12 791 88 1424 338 1978 779 151 121 412 374 524 511 279 337 483 706 616
1119 45 139 107 381 117 458 l7 49 -893 -2 -892 -3 -29 -95 c-59 -201 -159
-407 -278 -575 -73 -104 -273 -306 -381 -385 -313 -230 -686 -365 -1134 -410
-179 -19 -586 -8 -745 19 -385 66 -689 190 -961 392 -101 75 -289 255 -372
357 -200 244 -362 564 -452 896 -57 206 -116 591 -116 751 l0 45 3175 0 3175
0 4 23 c10 43 26 194 37 347 14 188 6 574 -16 780 -104 968 -469 1764 -1100
2396 -282 282 -578 498 -940 683 -677 348 -1512 508 -2398 460z m714 -1454
c540 -61 995 -276 1344 -636 200 -206 340 -428 438 -690 61 -162 119 -387 142
-551 l6 -48 -2256 0 -2256 0 6 48 c71 502 267 914 591 1238 449 450 1047 679
1714 657 80 -2 202 -11 271 -18z"/>
<path d="M25110 9635 l0 -4215 895 0 895 0 0 4215 0 4215 -895 0 -895 0 0
-4215z"/>
</g>
</svg>
