<?xml version="1.0" encoding="UTF-8"?>
<svg version="1.1" xmlns="http://www.w3.org/2000/svg" width="820" height="304">
<path d="M0 0 C0 4.95 0 9.9 0 15 C-2.21354167 15.61848958 -4.42708333 16.23697917 -6.640625 16.85546875 C-9.87558243 18.42474446 -11.08033434 19.93972133 -13 23 C-13.53691884 26.01559382 -13.46686051 28.96470001 -13.390625 32.01953125 C-13.38213531 33.30738777 -13.38213531 33.30738777 -13.37347412 34.6212616 C-13.35115787 37.3522516 -13.30097167 40.08190939 -13.25 42.8125 C-13.2299288 44.66860079 -13.21167911 46.52472223 -13.1953125 48.38085938 C-13.15130881 52.92108296 -13.08231521 57.46031593 -13 62 C-12.22398437 61.20303711 -11.44796875 60.40607422 -10.6484375 59.58496094 C-7.74399144 56.60766506 -4.82595836 53.64399543 -1.90380859 50.68408203 C-0.64522638 49.40548646 0.60973013 48.1233107 1.86083984 46.83740234 C3.66844306 44.9808282 5.48905271 43.13787466 7.3125 41.296875 C7.86180176 40.7269281 8.41110352 40.1569812 8.97705078 39.56976318 C15.38223788 33.16099216 22.25492754 30.02956608 31.3125 29.875 C32.87529372 29.90360355 34.43790423 29.94523537 36 30 C36.72058594 30.01675781 37.44117188 30.03351563 38.18359375 30.05078125 C42.02674934 30.3050543 43.84399089 30.86825898 46.8125 33.375 C47.534375 34.24125 48.25625 35.1075 49 36 C49.598125 36.556875 50.19625 37.11375 50.8125 37.6875 C52 39 52 39 52 41 C51.34 41 50.68 41 50 41 C50 41.66 50 42.32 50 43 C49.34 43 48.68 43 48 43 C48 43.66 48 44.32 48 45 C47.34 45 46.68 45 46 45 C46 45.66 46 46.32 46 47 C44.5 48.625 44.5 48.625 43 50 C38.28971963 48.1682243 38.28971963 48.1682243 36.0625 46.875 C33.13320789 45.63227001 31.16701817 45.62740963 28 46 C22.75545776 48.3413135 19.74041383 51.07277538 16.26171875 55.609375 C15.63716797 56.29773438 15.63716797 56.29773438 15 57 C14.34 57 13.68 57 13 57 C13 57.66 13 58.32 13 59 C12.34 59 11.68 59 11 59 C11 59.66 11 60.32 11 61 C10.34 61 9.68 61 9 61 C8.731875 61.639375 8.46375 62.27875 8.1875 62.9375 C7 65 7 65 4 66 C3.31513275 67.32407669 2.65129797 68.65909241 2 70 C0.68 71.32 -0.64 72.64 -2 74 C11.86 74 25.72 74 40 74 C40 74.66 40 75.32 40 76 C40.70125 76.0825 41.4025 76.165 42.125 76.25 C49.11592118 78.07371857 53.89275516 83.30586511 58 89 C60.88589997 94.33485029 61 97.68320853 61 104 C56.05 104 51.1 104 46 104 C45.31640625 101.75390625 44.6328125 99.5078125 43.94921875 97.26171875 C42.93644577 94.84856832 42.02964958 93.62873114 40 92 C36.0523573 90.6841191 32.28910644 90.87699727 28.17578125 90.90234375 C26.88367989 90.90446617 26.88367989 90.90446617 25.56547546 90.90663147 C22.81444831 90.9122286 20.06350256 90.92478054 17.3125 90.9375 C15.4472668 90.94251537 13.58203233 90.94707821 11.71679688 90.95117188 C7.14449989 90.96219708 2.57226375 90.97945973 -2 91 C-0.5718951 92.44167359 0.85817332 93.88140232 2.2890625 95.3203125 C3.48329834 96.52324951 3.48329834 96.52324951 4.70166016 97.75048828 C7.35364407 100.34613092 10.11756623 102.66660123 13 105 C14.875 106.6875 14.875 106.6875 16 108 C16 108.66 16 109.32 16 110 C16.66 110 17.32 110 18 110 C18 110.66 18 111.32 18 112 C18.66 112 19.32 112 20 112 C26.56921326 118.55526588 30.70527585 125.37346031 31.12109375 134.72265625 C30.82522144 141.50863079 28.87823711 147.39694045 25 153 C22.83203125 154.78125 22.83203125 154.78125 21 156 C19.70756532 154.8758824 18.41607925 153.75067408 17.125 152.625 C16.40570313 151.99851563 15.68640625 151.37203125 14.9453125 150.7265625 C13.5923402 149.52573166 12.2791655 148.2791655 11 147 C11.38878188 143.98694043 12.26456874 142.60314689 14 140 C14.39090193 137.92346877 14.39090193 137.92346877 14.375 135.6875 C14.40335937 134.94886719 14.43171875 134.21023437 14.4609375 133.44921875 C13.36797956 127.64172191 8.66628153 123.38349855 4.578125 119.3828125 C3.82085114 118.62978348 3.82085114 118.62978348 3.04827881 117.86154175 C1.45353414 116.27788585 -0.14806044 114.70137413 -1.75 113.125 C-2.84030662 112.04473781 -3.9301549 110.9640128 -5.01953125 109.8828125 C-7.67441334 107.24984048 -10.33548103 104.62322338 -13 102 C-13.0093457 103.15935059 -13.01869141 104.31870117 -13.02832031 105.51318359 C-13.06849635 109.85600798 -13.13432906 114.19814434 -13.20751953 118.54052734 C-13.23557016 120.41218154 -13.25686302 122.28395069 -13.27099609 124.15576172 C-13.46335805 148.20100617 -13.46335805 148.20100617 -22.1796875 157.46484375 C-28.7580406 163.01268231 -35.5728372 164.63883588 -44 165 C-44 160.05 -44 155.1 -44 150 C-41.89625 149.4121875 -41.89625 149.4121875 -39.75 148.8125 C-35.48971784 147.37900883 -33.25668829 146.04323318 -31 142 C-29.96012573 137.3651077 -29.93647955 132.91303221 -30.12109375 128.1953125 C-30.14470474 127.4713327 -30.16831573 126.74735291 -30.19264221 126.00143433 C-30.26867693 123.70905949 -30.35295624 121.41707519 -30.4375 119.125 C-30.49078114 117.56251855 -30.54352103 116.00001854 -30.59570312 114.4375 C-30.7242095 110.62475684 -30.86010629 106.81234164 -31 103 C-32.06528931 104.09671021 -32.06528931 104.09671021 -33.15209961 105.21557617 C-35.81978621 107.95631495 -38.50122463 110.68325936 -41.18676758 113.40649414 C-42.34153453 114.58122917 -43.49266887 115.75954766 -44.63989258 116.94165039 C-56.75683096 129.41729657 -56.75683096 129.41729657 -65 133 C-65.66 133.33 -66.32 133.66 -67 134 C-77.8206428 134.75521649 -85.15758692 134.38180981 -94 127.75 C-94.66 127.1725 -95.32 126.595 -96 126 C-94.6095501 122.89557969 -92.98428402 120.6343557 -90.625 118.1875 C-89.74714844 117.24970703 -89.74714844 117.24970703 -88.8515625 116.29296875 C-87 115 -87 115 -84.8828125 115.234375 C-83 116 -83 116 -81.25 117.0625 C-77.91543974 118.45190011 -74.52600039 118.61064811 -71 118 C-66.75426863 115.8023277 -63.5763269 112.84018452 -60.26171875 109.45703125 C-59.73608841 108.92857101 -59.21045807 108.40011078 -58.66889954 107.8556366 C-57.00364752 106.17925738 -55.34551508 104.49603411 -53.6875 102.8125 C-52.55450083 101.66946139 -51.42104191 100.52687831 -50.28710938 99.38476562 C-47.51939172 96.59508668 -44.75803452 93.79925127 -42 91 C-43.76875488 91.00169189 -43.76875488 91.00169189 -45.57324219 91.00341797 C-50.0019387 90.99971133 -54.42956854 90.95659602 -58.85791016 90.90234375 C-60.76441517 90.88431838 -62.67104934 90.87659048 -64.57763672 90.87988281 C-77.66951019 90.89361315 -88.62538245 90.55448758 -98.5 80.8125 C-102.24190476 75.86388631 -105 69.22208538 -105 63 C-105.66 63 -106.32 63 -107 63 C-106.67 62.01 -106.34 61.02 -106 60 C-100.06 60 -94.12 60 -88 60 C-88 62.31 -88 64.62 -88 67 C-85.57410743 71.04315429 -83.45548594 72.65112937 -79 74 C-76.10427801 74.16585708 -73.31009798 74.23341501 -70.41796875 74.1953125 C-69.19670036 74.19106766 -69.19670036 74.19106766 -67.95075989 74.18673706 C-65.362854 74.17558584 -62.77530042 74.15049083 -60.1875 74.125 C-58.42773939 74.11496365 -56.66797333 74.10583894 -54.90820312 74.09765625 C-50.60533402 74.0756631 -46.30272664 74.04116836 -42 74 C-42.76666992 73.24380371 -43.53333984 72.48760742 -44.32324219 71.70849609 C-47.18353932 68.88457262 -50.03707031 66.05389318 -52.88867188 63.22119141 C-54.12057778 61.99930363 -55.35427784 60.77922183 -56.58984375 59.56103516 C-58.37201328 57.80329859 -60.1474937 56.03903164 -61.921875 54.2734375 C-62.46994812 53.73568695 -63.01802124 53.1979364 -63.58270264 52.64389038 C-70.46549284 45.76309874 -74.24719775 39.14571721 -74.4375 29.25 C-74.34306022 21.8128672 -72.50191923 15.71515085 -67.33203125 10.23046875 C-66.89246094 9.82441406 -66.45289063 9.41835937 -66 9 C-62.89557969 10.3904499 -60.6343557 12.01571598 -58.1875 14.375 C-57.56230469 14.96023437 -56.93710938 15.54546875 -56.29296875 16.1484375 C-55 18 -55 18 -55.17578125 20.0390625 C-56 22 -56 22 -58 25 C-58.84837344 28.16682908 -58.76373905 30.81525806 -58 34 C-55.98830557 37.1799589 -53.43208223 39.70115889 -50.73583984 42.31103516 C-48.5954042 44.39367 -46.49602767 46.51480706 -44.39453125 48.63671875 C-39.95208927 53.11391542 -35.48334153 57.56379048 -31 62 C-30.9906543 60.90647217 -30.98130859 59.81294434 -30.97167969 58.6862793 C-30.93142656 54.58008967 -30.86557496 50.47462182 -30.79248047 46.36889648 C-30.76447367 44.60108806 -30.74315955 42.83315914 -30.72900391 41.06518555 C-30.52306282 16.78473199 -30.52306282 16.78473199 -21.70703125 7.5 C-14.65337167 1.30181858 -9.38011776 0 0 0 Z " fill="#151515" transform="translate(184,64)"/>
<path d="M0 0 C0.66 1.65 1.32 3.3 2 5 C2.60328125 4.72285156 3.2065625 4.44570312 3.828125 4.16015625 C4.62734375 3.79792969 5.4265625 3.43570313 6.25 3.0625 C7.03890625 2.70285156 7.8278125 2.34320313 8.640625 1.97265625 C15.16515077 -0.7170903 22.44644169 -1.10887897 29.1875 1.125 C37.02909667 4.53988887 41.67306793 10.24149045 45 18 C48.60666933 27.86198644 48.37252331 40.50105829 45.234375 50.43359375 C41.56059622 58.07179836 34.70982047 64.50003867 27 68 C24.125 68.8125 24.125 68.8125 21 69 C20.236875 69.05027344 19.47375 69.10054688 18.6875 69.15234375 C12.24805584 69.3977494 9.64775859 68.49290947 3 66 C3 72.6 3 79.2 3 86 C7.89153471 85.9604321 7.89153471 85.9604321 12.78295898 85.90991211 C14.52221717 85.90275087 16.26145304 85.94975298 18 86 C19.89488952 87.89488952 19.18019112 90.57139146 19.23046875 93.08984375 C19 95 19 95 17 97 C14.08250865 97.19998324 11.26198071 97.27974887 8.34375 97.265625 C7.48567749 97.26753845 6.62760498 97.2694519 5.74353027 97.27142334 C3.92781278 97.27278544 2.11208555 97.26908728 0.29638672 97.26074219 C-2.4888285 97.25004291 -5.27339868 97.26063653 -8.05859375 97.2734375 C-9.82031393 97.27211591 -11.58203371 97.26955353 -13.34375 97.265625 C-14.59847107 97.27169769 -14.59847107 97.27169769 -15.87854004 97.27789307 C-21.77008166 97.22991834 -21.77008166 97.22991834 -24 95 C-24.39764263 93.01178687 -24.73775349 91.01055661 -25 89 C-24.34 89 -23.68 89 -23 89 C-23 88.34 -23 87.68 -23 87 C-21 86 -21 86 -12 85 C-11.67 61.24 -11.34 37.48 -11 13 C-15.29 13 -19.58 13 -24 13 C-26.125 6.375 -26.125 6.375 -25 3 C-17.23131311 -0.4959091 -8.34950221 -0.15688 0 0 Z M3 18 C1.96565107 24.28681554 2.24995135 30.46633605 2.5 36.8125 C2.54014368 38.57218541 2.57664295 40.331958 2.609375 42.09179688 C2.69738886 46.39668427 2.83533106 50.69739049 3 55 C8.70501265 57.50324104 12.80512299 59.11763245 19 58 C25.22036396 55.52724047 28.19875462 51.93864021 31 46 C31.33 45.34 31.66 44.68 32 44 C32.17878097 41.11019609 32.27779906 38.26674462 32.3125 35.375 C32.35600586 34.20130859 32.35600586 34.20130859 32.40039062 33.00390625 C32.48013039 25.60650951 30.21233239 20.59004768 25.4375 15 C18.56968939 11.00418292 7.99509074 10.99632527 3 18 Z " fill="#191919" transform="translate(497,123)"/>
<path d="M0 0 C2.35953094 2.35953094 2.49141413 3.77895617 3 7 C3.61746094 6.66226563 4.23492187 6.32453125 4.87109375 5.9765625 C14.09170053 1.12065695 23.75144025 -2.1263362 34.125 1.0625 C38.53797425 2.9301958 41.74466587 5.76227026 44 10 C45.81678523 16.14927809 46.27693925 22.03168248 46.1953125 28.41015625 C46.1924826 29.26306747 46.18965271 30.1159787 46.18673706 30.99473572 C46.17565831 33.68414118 46.15057793 36.37319742 46.125 39.0625 C46.11495425 40.90038577 46.10583121 42.73827683 46.09765625 44.57617188 C46.07575951 49.05091313 46.04131673 53.52539763 46 58 C49.63 58 53.26 58 57 58 C58.25 64.625 58.25 64.625 56 68 C53.44604513 68.26711404 51.13725626 68.34849029 48.5859375 68.29296875 C47.85629791 68.28872391 47.12665833 68.28447906 46.37490845 68.28010559 C44.04123241 68.26329353 41.7084156 68.22563868 39.375 68.1875 C37.79428329 68.17245634 36.21355307 68.15876738 34.6328125 68.14648438 C30.75487656 68.11338201 26.87758402 68.06158404 23 68 C22.34 65.36 21.68 62.72 21 60 C24.28463659 57.81024227 27.20696275 57.00193437 31 56 C31.0499542 52.03478915 31.08597787 48.06970369 31.10986328 44.10424805 C31.12470245 42.10263623 31.15013361 40.10111188 31.17578125 38.09960938 C31.41543362 26.31218923 31.41543362 26.31218923 27.4375 15.4375 C23.63047239 13.19232987 20.29963523 13.18396078 16 14 C11.67245162 15.84687498 7.90241363 18.39839091 4 21 C3.66228483 23.83024762 3.51096665 26.45243967 3.48828125 29.2890625 C3.47033005 30.10748627 3.45237885 30.92591003 3.43388367 31.76913452 C3.37962486 34.38770364 3.34583596 37.00608894 3.3125 39.625 C3.27934057 41.39846317 3.24485221 43.17190204 3.20898438 44.9453125 C3.12388981 49.29674264 3.0571536 53.64811679 3 58 C7.29 58 11.58 58 16 58 C16.09765625 64.93359375 16.09765625 64.93359375 16 67 C14.18434564 68.81565436 11.68730038 68.12861899 9.27111816 68.13894653 C8.47008667 68.1369223 7.66905518 68.13489807 6.84375 68.1328125 C5.61754944 68.13424759 5.61754944 68.13424759 4.36657715 68.13571167 C2.63484622 68.13639345 0.90311276 68.13453929 -0.82861328 68.13037109 C-3.48866482 68.12502279 -6.1485475 68.13031612 -8.80859375 68.13671875 C-10.48697954 68.13605797 -12.16536523 68.1347768 -13.84375 68.1328125 C-14.64478149 68.13483673 -15.44581299 68.13686096 -16.27111816 68.13894653 C-21.88504921 68.11495079 -21.88504921 68.11495079 -23 67 C-23.1875 63.5625 -23.1875 63.5625 -23 60 C-21 58 -21 58 -11 57 C-11 42.48 -11 27.96 -11 13 C-14.96 13 -18.92 13 -23 13 C-25.56687367 9.1496895 -24.83288724 7.41430237 -24 3 C-17.21486349 -0.39256825 -7.48783062 -0.95211639 0 0 Z " fill="#181818" transform="translate(370,123)"/>
<path d="M0 0 C8.24601057 -0.19124445 14.68229589 0.82630546 21.30078125 6.12109375 C26.77892227 12.96877002 27.60283336 19.88835629 27.49609375 28.3359375 C27.49326385 29.19167862 27.49043396 30.04741974 27.48751831 30.92909241 C27.4764006 33.63907366 27.45131207 36.34871384 27.42578125 39.05859375 C27.41574056 40.90559416 27.40661662 42.75259979 27.3984375 44.59960938 C27.37648888 49.10690052 27.34201779 53.61393948 27.30078125 58.12109375 C31.26078125 58.12109375 35.22078125 58.12109375 39.30078125 58.12109375 C39.30078125 61.09109375 39.30078125 64.06109375 39.30078125 67.12109375 C34.75975295 69.37806607 30.69884784 69.48757776 25.73828125 69.49609375 C24.98353516 69.52058594 24.22878906 69.54507813 23.45117188 69.5703125 C19.71763608 69.59004925 17.73340487 69.46746011 14.7734375 67.09765625 C14.28746094 66.44539063 13.80148437 65.793125 13.30078125 65.12109375 C12.30498047 65.53681641 12.30498047 65.53681641 11.2890625 65.9609375 C9.96455078 66.50427734 9.96455078 66.50427734 8.61328125 67.05859375 C7.30810547 67.59806641 7.30810547 67.59806641 5.9765625 68.1484375 C-2.1453585 71.10078543 -9.11072259 70.54247122 -17.1015625 67.46484375 C-21.98721471 64.93752892 -24.97322107 61.2990868 -26.69921875 56.12109375 C-27.24198817 49.56610918 -27.22882811 43.85670896 -23.69921875 38.12109375 C-18.88062766 32.91956827 -14.38053584 29.39217901 -7.06420898 28.96850586 C-3.9815103 28.92434112 -0.90680437 28.94674201 2.17578125 28.99609375 C3.24570312 29.00511719 4.315625 29.01414063 5.41796875 29.0234375 C8.04580564 29.04690033 10.67317531 29.07972916 13.30078125 29.12109375 C12.90418415 26.84666945 12.48277506 24.57656123 12.05078125 22.30859375 C11.70273437 20.41173828 11.70273437 20.41173828 11.34765625 18.4765625 C10.56851087 15.14093359 10.56851087 15.14093359 8.55078125 13.21484375 C5.80636874 11.88075434 3.59111766 11.61456616 0.55078125 11.43359375 C-0.92648437 11.33498047 -0.92648437 11.33498047 -2.43359375 11.234375 C-3.18125 11.19699219 -3.92890625 11.15960938 -4.69921875 11.12109375 C-4.59609375 12.17296875 -4.49296875 13.22484375 -4.38671875 14.30859375 C-4.69921875 18.12109375 -4.69921875 18.12109375 -6.76171875 20.99609375 C-10.31180778 23.56424326 -12.32066382 24.1979105 -16.69921875 24.12109375 C-22.16757318 21.18438489 -22.16757318 21.18438489 -23.69921875 18.12109375 C-24.26607026 11.20550533 -24.26607026 11.20550533 -22.26171875 7.37109375 C-15.78523353 1.6844238 -8.37604699 0.37577056 0 0 Z M-10.69921875 43.12109375 C-12.31326968 46.75270835 -12.96011371 48.97315594 -12.07421875 52.87109375 C-10.42637872 55.56755926 -9.56327276 56.72578539 -6.69921875 58.12109375 C0.60921649 59.48115021 6.12594759 56.85784825 12.30078125 53.12109375 C13.61340696 52.03557009 13.61340696 52.03557009 13.3984375 49.3984375 C13.38683594 48.29628906 13.37523437 47.19414062 13.36328125 46.05859375 C13.35425781 44.95386719 13.34523438 43.84914062 13.3359375 42.7109375 C13.32433594 41.85628906 13.31273437 41.00164062 13.30078125 40.12109375 C10.42520422 40.03970949 7.55195863 39.98041524 4.67578125 39.93359375 C3.86753906 39.90845703 3.05929687 39.88332031 2.2265625 39.85742188 C-2.8215223 39.79585987 -6.38062695 40.1949451 -10.69921875 43.12109375 Z " fill="#1A1A1A" transform="translate(579.69921875,122.87890625)"/>
<path d="M0 0 C2.4099522 2.4099522 2.25312896 2.97143515 2.27124023 6.26269531 C2.28142685 7.14411194 2.29161346 8.02552856 2.30210876 8.93365479 C2.30424881 9.88882996 2.30638885 10.84400513 2.30859375 11.828125 C2.33376244 13.84505486 2.35916034 15.86198188 2.38476562 17.87890625 C2.41347087 21.06298022 2.4374823 24.24700445 2.45629883 27.43115234 C2.47799981 30.50124526 2.51745429 33.57073993 2.55859375 36.640625 C2.55870956 37.58770325 2.55882538 38.53478149 2.5589447 39.51055908 C2.63681067 44.72948989 3.00284892 48.5265349 6 53 C10.07750924 55.71833949 13.2100524 55.63815916 18 55 C23.40732978 53.22094013 23.40732978 53.22094013 28 50 C28.16010481 47.26298822 28.25946828 44.5483241 28.31640625 41.80859375 C28.33718735 40.98875504 28.35796844 40.16891632 28.37937927 39.32423401 C28.44496494 36.69541099 28.50380126 34.06648496 28.5625 31.4375 C28.60567667 29.65949439 28.64929067 27.88149935 28.69335938 26.10351562 C28.80065543 21.73578366 28.90189704 17.36794773 29 13 C25.7 13 22.4 13 19 13 C18.505 11.515 18.505 11.515 18 10 C17.34 9.67 16.68 9.34 16 9 C17.07401108 6.08482708 17.77810176 4.22189824 20 2 C26.84418991 0.42952016 33.98404533 -0.52950601 41 0 C43 2 43 2 43.24050903 4.3664856 C43.23606781 5.35687836 43.23162659 6.34727112 43.22705078 7.36767578 C43.22689972 8.48868683 43.22674866 9.60969788 43.22659302 10.76467896 C43.21627045 11.97928802 43.20594788 13.19389709 43.1953125 14.4453125 C43.1924826 15.68546112 43.18965271 16.92560974 43.18673706 18.20333862 C43.17742174 21.50124633 43.1594489 24.79895972 43.1373291 28.09680176 C43.11687474 31.4616457 43.10773623 34.82651807 43.09765625 38.19140625 C43.07556515 44.79435706 43.04101939 51.39714074 43 58 C47.29 58 51.58 58 56 58 C56.125 65.75 56.125 65.75 55 68 C50.71845281 69.26981248 46.30724769 69.21770676 41.875 69.25 C41.15957031 69.270625 40.44414062 69.29125 39.70703125 69.3125 C34.52684554 69.35123036 34.52684554 69.35123036 32.0078125 67.671875 C31 66 31 66 31 63 C30.17757812 63.42152344 29.35515625 63.84304687 28.5078125 64.27734375 C18.35763967 69.25866413 11.1480017 71.47069761 0.2265625 67.984375 C-2.18038767 66.92024966 -4.03059131 65.74459035 -6 64 C-6 63.34 -6 62.68 -6 62 C-6.66 62 -7.32 62 -8 62 C-11.46393339 54.62031582 -12.15485524 47.74418744 -12.09765625 39.66015625 C-12.0962413 38.89319931 -12.09482635 38.12624237 -12.09336853 37.33604431 C-12.08781766 34.9114881 -12.07527463 32.48702781 -12.0625 30.0625 C-12.05747864 28.40820447 -12.05291685 26.75390747 -12.04882812 25.09960938 C-12.03786438 21.06636988 -12.02063424 17.03320114 -12 13 C-12.69867188 13.02320313 -13.39734375 13.04640625 -14.1171875 13.0703125 C-15.02726562 13.08835938 -15.93734375 13.10640625 -16.875 13.125 C-17.77992188 13.14820313 -18.68484375 13.17140625 -19.6171875 13.1953125 C-22 13 -22 13 -24 11 C-24.55180991 5.81298684 -24.55180991 5.81298684 -22.90234375 3.3828125 C-20.14050784 1.37523568 -17.61654892 1.2351247 -14.25 0.8125 C-12.46335937 0.57466797 -12.46335937 0.57466797 -10.640625 0.33203125 C-7.04683261 0.00427121 -3.60462895 -0.19976392 0 0 Z " fill="#1A1A1A" transform="translate(287,123)"/>
<path d="M0 0 C5.79991053 5.37192731 7.73001993 11.85125055 8.28515625 19.484375 C8.383125 20.69222656 8.48109375 21.90007812 8.58203125 23.14453125 C8.53604079 26.36003058 8.44092375 27.87496967 6.53515625 30.421875 C2.70076367 33.11899942 -1.66559586 32.77177452 -6.16796875 32.8359375 C-7.00575867 32.85530365 -7.84354858 32.8746698 -8.70672607 32.8946228 C-11.37599588 32.95428224 -14.04530914 33.00074913 -16.71484375 33.046875 C-18.52736229 33.08506736 -20.33986293 33.12411982 -22.15234375 33.1640625 C-26.5896979 33.25997252 -31.027137 33.3440538 -35.46484375 33.421875 C-35.160625 34.67484375 -34.85640625 35.9278125 -34.54296875 37.21875 C-34.28628418 38.27594238 -34.28628418 38.27594238 -34.02441406 39.35449219 C-32.83507598 43.74860863 -31.26896495 46.65795986 -27.96484375 49.796875 C-23.00884744 52.09787329 -18.83887902 52.28607797 -13.46484375 51.421875 C-8.74570133 49.65545567 -4.64453254 47.20833419 -0.46484375 44.421875 C2.66577991 44.57840618 4.07843416 44.98090195 6.34765625 47.171875 C7.79131442 49.90722733 7.95136177 51.36346591 7.53515625 54.421875 C0.31745939 61.08672699 -11.06310012 63.91977746 -20.65234375 64.671875 C-29.83056899 64.07002416 -37.39387417 60.94931608 -43.65234375 54.109375 C-50.28032275 45.90660203 -51.89954435 35.65133602 -51.33984375 25.296875 C-50.12051687 14.68318871 -45.91650283 6.59636891 -37.55078125 -0.11328125 C-26.61845015 -7.58298158 -10.65662949 -8.25342603 0 0 Z M-33.52734375 12.859375 C-35.76452838 16.10592912 -35.46484375 17.0023367 -35.46484375 21.421875 C-25.89484375 21.421875 -16.32484375 21.421875 -6.46484375 21.421875 C-6.46484375 15.72225334 -6.50297104 13.96341316 -9.46484375 9.421875 C-12.40651345 6.93779836 -14.47926628 5.59708877 -18.27734375 4.921875 C-24.38112224 5.87933045 -29.67669868 7.84916067 -33.52734375 12.859375 Z " fill="#1C1C1C" transform="translate(738.46484375,128.578125)"/>
<path d="M0 0 C2.49040942 2.49040942 2.32391014 3.43154357 2.375 6.875 C2.31332098 10.43696344 2.27475404 11.62450281 0.125 14.5625 C-3.48243563 17.0028241 -5.60613932 17.58032122 -10 17 C-12.79700443 15.38009162 -15.01399816 13.55589803 -17 11 C-17.4375 7.625 -17.4375 7.625 -17 5 C-23.2985986 5.24895647 -28.183897 5.52790436 -33 10 C-38.21879486 18.32322267 -38.59020839 26.39660932 -38 36 C-37.28346053 38.95407682 -36.30701528 41.22912761 -35 44 C-34.77957031 45.05574219 -34.77957031 45.05574219 -34.5546875 46.1328125 C-34.37164063 46.74898437 -34.18859375 47.36515625 -34 48 C-31.59047977 49.24714403 -31.59047977 49.24714403 -29 50 C-28.34 50.33 -27.68 50.66 -27 51 C-19.63189948 52.33965464 -14.1840057 50.05778369 -7.91113281 46.40234375 C-5.17977381 44.85670306 -3.37958617 43.98672776 -0.20703125 44.09765625 C2 45 2 45 4 48 C4.625 50.875 4.625 50.875 4 54 C-2.99709824 60.78270247 -14.60090376 63.60594061 -24.015625 64.09375 C-32.56301439 63.82524562 -39.94744088 61.1213382 -46 55 C-53.58334848 45.30801635 -55.04660135 33.47921793 -53.7265625 21.5234375 C-52.20336617 12.24056175 -48.36570682 5.38061156 -41.046875 -0.5625 C-29.55667657 -8.63195233 -11.11190317 -8.67270491 0 0 Z " fill="#1C1C1C" transform="translate(676,129)"/>
<path d="M0 0 C0.78890625 -0.04640625 1.5778125 -0.0928125 2.390625 -0.140625 C3.4425 -0.21410156 3.4425 -0.21410156 4.515625 -0.2890625 C6.390625 0.234375 6.390625 0.234375 7.98652649 2.42753601 C9.51772285 5.48844777 9.75549528 7.2741591 9.73120117 10.66723633 C9.73097458 11.72795853 9.73074799 12.78868073 9.73051453 13.88154602 C9.71503067 15.0150499 9.69954681 16.14855377 9.68359375 17.31640625 C9.67934891 18.48572189 9.67510406 19.65503754 9.67073059 20.85978699 C9.65395785 24.589052 9.61630692 28.31777372 9.578125 32.046875 C9.56307641 34.57746615 9.54938831 37.10806577 9.53710938 39.63867188 C9.50405883 45.83742449 9.4538727 52.03586092 9.390625 58.234375 C10.00550781 58.15058594 10.62039063 58.06679687 11.25390625 57.98046875 C12.46626953 57.82771484 12.46626953 57.82771484 13.703125 57.671875 C14.90388672 57.51525391 14.90388672 57.51525391 16.12890625 57.35546875 C18.390625 57.234375 18.390625 57.234375 21.390625 58.234375 C21.5859375 64.2890625 21.5859375 64.2890625 21.390625 66.234375 C18.83628749 68.78871251 17.18328617 68.47168293 13.70091248 68.48661804 C12.92691605 68.47943253 12.15291962 68.47224701 11.35546875 68.46484375 C10.16468468 68.46415642 10.16468468 68.46415642 8.94984436 68.4634552 C7.27115383 68.46043265 5.5924661 68.45254625 3.91381836 68.44018555 C1.33502342 68.42192385 -1.24341277 68.41967587 -3.82226562 68.41992188 C-5.45052396 68.41500696 -7.07877984 68.40917876 -8.70703125 68.40234375 C-9.87106224 68.40067451 -9.87106224 68.40067451 -11.05860901 68.39897156 C-16.49332493 68.35042507 -16.49332493 68.35042507 -17.609375 67.234375 C-17.4323314 64.21321167 -16.99016597 61.23839268 -16.609375 58.234375 C-11.164375 57.739375 -11.164375 57.739375 -5.609375 57.234375 C-5.609375 42.714375 -5.609375 28.194375 -5.609375 13.234375 C-9.569375 13.234375 -13.529375 13.234375 -17.609375 13.234375 C-19.7621903 8.9287444 -20.0630627 7.6923506 -18.609375 3.234375 C-12.76184168 0.24404272 -6.39899275 0.57475983 0 0 Z " fill="#1F1F1F" transform="translate(449.609375,122.765625)"/>
<path d="M0 0 C3.38159208 2.02895525 4.73046631 3.15546112 5.9375 6.9375 C6.02027213 10.99333448 5.06587919 13.42923067 2.8125 16.75 C-0.03472456 18.71360315 -2.59027753 18.82363504 -6 19 C-9.32262764 18.24485735 -10.6222498 17.42811689 -12.875 14.875 C-14.39625443 10.98734979 -14.23727312 7.9692386 -13 4 C-9.24332832 -0.88367318 -5.84427145 -1.51951058 0 0 Z " fill="#242424" transform="translate(454,89)"/>
<path d="M0 0 C14.52 0 29.04 0 44 0 C42.8783542 5.60822898 42.8783542 5.60822898 39.25 8.5 C36.88593673 10.44490311 34.66873817 12.33126183 32.5 14.5 C29.15364457 17.84635543 25.5848801 20.91326701 22 24 C21.34 23.67 20.68 23.34 20 23 C26.93 16.07 33.86 9.14 41 2 C20.705 1.505 20.705 1.505 0 1 C0 0.67 0 0.34 0 0 Z " fill="#949494" transform="translate(101,153)"/>
<path d="M0 0 C0.66 0 1.32 0 2 0 C2.04940929 5.49925421 2.08572395 10.99837942 2.10986328 16.49780273 C2.11992567 18.36891938 2.13357691 20.24002028 2.15087891 22.11108398 C2.17511684 24.79935591 2.18648063 27.48742006 2.1953125 30.17578125 C2.20563507 31.01337479 2.21595764 31.85096832 2.22659302 32.71394348 C2.22774341 38.65838488 2.22774341 38.65838488 0 42 C-0.16946871 37.6260934 -0.32980011 33.25196895 -0.48217773 28.87744141 C-0.53509062 27.39362896 -0.59037037 25.90989874 -0.64819336 24.42626953 C-0.96735357 16.19471151 -1.09081271 8.19321544 0 0 Z " fill="#949494" transform="translate(154,163)"/>
<path d="M0 0 C0.33 0.66 0.66 1.32 1 2 C-4.34388455 8.33480354 -10.08833812 14.19539034 -16 20 C-16.99 19.67 -17.98 19.34 -19 19 C-12.73 12.73 -6.46 6.46 0 0 Z " fill="#696969" transform="translate(192,105)"/>
<path d="M0 0 C0.99 0.33 1.98 0.66 3 1 C1.56877218 2.48523642 0.12979111 3.96300462 -1.3125 5.4375 C-2.11300781 6.26121094 -2.91351563 7.08492187 -3.73828125 7.93359375 C-6 10 -6 10 -9 11 C-7.59155282 7.78475695 -5.89655214 5.67816132 -3.375 3.25 C-2.74335937 2.63640625 -2.11171875 2.0228125 -1.4609375 1.390625 C-0.73777344 0.70226562 -0.73777344 0.70226562 0 0 Z " fill="#808080" transform="translate(97,179)"/>
<path d="M0 0 C0.66 0.33 1.32 0.66 2 1 C-1.63 4.63 -5.26 8.26 -9 12 C-9 7.8407692 -6.75316432 5.85455565 -4 3 C-1.6875 1.125 -1.6875 1.125 0 0 Z " fill="#696969" transform="translate(168,67)"/>
<path d="M0 0 C0.59296875 0.22558594 1.1859375 0.45117188 1.796875 0.68359375 C0.70403923 1.71654811 -0.40283079 2.7346721 -1.515625 3.74609375 C-2.13050781 4.31457031 -2.74539062 4.88304687 -3.37890625 5.46875 C-3.98089844 5.86964844 -4.58289063 6.27054688 -5.203125 6.68359375 C-6.193125 6.35359375 -7.183125 6.02359375 -8.203125 5.68359375 C-7.30284912 4.64827649 -6.38219465 3.6306521 -5.453125 2.62109375 C-4.68742188 1.76837891 -4.68742188 1.76837891 -3.90625 0.8984375 C-2.203125 -0.31640625 -2.203125 -0.31640625 0 0 Z " fill="#616161" transform="translate(142.203125,157.31640625)"/>
<path d="M0 0 C0.66 0.33 1.32 0.66 2 1 C-3 7.57142857 -3 7.57142857 -8 9 C-6.4169423 4.7257442 -3.49431596 2.73468206 0 0 Z " fill="#7B7B7B" transform="translate(637,127)"/>
<path d="M0 0 C0.99 0.33 1.98 0.66 3 1 C0.42215154 3.64752004 -1.91648098 5.94432065 -5 8 C-3.8141763 4.62496331 -2.72426311 2.35277269 0 0 Z " fill="#6D6D6D" transform="translate(118,73)"/>
<path d="M0 0 C0.33 0 0.66 0 1 0 C1 1.98 1 3.96 1 6 C0.67 6 0.34 6 0 6 C0 4.02 0 2.04 0 0 Z " fill="#FFFFFF" transform="translate(331,170)"/>
<path d="M0 0 C1.32 0.33 2.64 0.66 4 1 C2.68 1.33 1.36 1.66 0 2 C0 1.34 0 0.68 0 0 Z " fill="#FFFFFF" transform="translate(139,212)"/>
<path d="M0 0 C0.33 0 0.66 0 1 0 C1 1.65 1 3.3 1 5 C0.67 5 0.34 5 0 5 C0 3.35 0 1.7 0 0 Z " fill="#FFFFFF" transform="translate(273,164)"/>
<path d="M0 0 C0.99 1.485 0.99 1.485 2 3 C1.34 3 0.68 3 0 3 C0 2.01 0 1.02 0 0 Z " fill="#FFFFFF" transform="translate(316,187)"/>
<path d="M0 0 C0.66 0 1.32 0 2 0 C1.67 0.66 1.34 1.32 1 2 C0.67 1.34 0.34 0.68 0 0 Z " fill="#FFFFFF" transform="translate(344,186)"/>
<path d="M0 0 C0.66 0.66 1.32 1.32 2 2 C1.34 2 0.68 2 0 2 C0 1.34 0 0.68 0 0 Z " fill="#FFFFFF" transform="translate(346,180)"/>
<path d="" fill="#FFFFFF" transform="translate(0,0)"/>
<path d="" fill="#FFFFFF" transform="translate(0,0)"/>
<path d="M0 0 C0.33 0.66 0.66 1.32 1 2 C0.34 1.67 -0.32 1.34 -1 1 C-0.67 0.67 -0.34 0.34 0 0 Z " fill="#FFFFFF" transform="translate(150,170)"/>
<path d="M0 0 C0.66 0.66 1.32 1.32 2 2 C1.34 2 0.68 2 0 2 C0 1.34 0 0.68 0 0 Z " fill="#FFFFFF" transform="translate(226,160)"/>
<path d="M0 0 C0.99 0.495 0.99 0.495 2 1 C1.01 1.495 1.01 1.495 0 2 C0 1.34 0 0.68 0 0 Z " fill="#FFFFFF" transform="translate(139,155)"/>
<path d="M0 0 C0.66 0.66 1.32 1.32 2 2 C1.34 2 0.68 2 0 2 C0 1.34 0 0.68 0 0 Z " fill="#FFFFFF" transform="translate(138,135)"/>
<path d="" fill="#FFFFFF" transform="translate(0,0)"/>
<path d="M0 0 C3 1 3 1 3 1 Z " fill="#FFFFFF" transform="translate(201,95)"/>
<path d="M0 0 C3 1 3 1 3 1 Z " fill="#FFFFFF" transform="translate(220,93)"/>
<path d="M0 0 C3 1 3 1 3 1 Z " fill="#FFFFFF" transform="translate(207,93)"/>
<path d="M0 0 C3 1 3 1 3 1 Z " fill="#FFFFFF" transform="translate(445,87)"/>
<path d="M0 0 C3 1 3 1 3 1 Z " fill="#FFFFFF" transform="translate(173,63)"/>
<path d="M0 0 C3 1 3 1 3 1 Z " fill="#FFFFFF" transform="translate(177,62)"/>
<path d="" fill="#FFFFFF" transform="translate(0,0)"/>
<path d="M0 0 C2 1 2 1 2 1 Z " fill="#FFFFFF" transform="translate(145,211)"/>
<path d="" fill="#FFFFFF" transform="translate(0,0)"/>
<path d="" fill="#FFFFFF" transform="translate(0,0)"/>
<path d="" fill="#FFFFFF" transform="translate(0,0)"/>
<path d="M0 0 C2 1 2 1 2 1 Z " fill="#FFFFFF" transform="translate(107,181)"/>
<path d="M0 0 C2 1 2 1 2 1 Z " fill="#FFFFFF" transform="translate(274,178)"/>
<path d="M0 0 C2 1 2 1 2 1 Z " fill="#FFFFFF" transform="translate(176,173)"/>
<path d="" fill="#FFFFFF" transform="translate(0,0)"/>
<path d="" fill="#FFFFFF" transform="translate(0,0)"/>
<path d="" fill="#FFFFFF" transform="translate(0,0)"/>
<path d="M0 0 C2 1 2 1 2 1 Z " fill="#FFFFFF" transform="translate(590,150)"/>
<path d="M0 0 C2 1 2 1 2 1 Z " fill="#FFFFFF" transform="translate(186,137)"/>
<path d="" fill="#FFFFFF" transform="translate(0,0)"/>
<path d="M0 0 C2 1 2 1 2 1 Z " fill="#FFFFFF" transform="translate(472,124)"/>
<path d="" fill="#FFFFFF" transform="translate(0,0)"/>
<path d="M0 0 C2 1 2 1 2 1 Z " fill="#FFFFFF" transform="translate(433,123)"/>
<path d="" fill="#FFFFFF" transform="translate(0,0)"/>
<path d="" fill="#FFFFFF" transform="translate(0,0)"/>
<path d="" fill="#FFFFFF" transform="translate(0,0)"/>
<path d="M0 0 C2 1 2 1 2 1 Z " fill="#FFFFFF" transform="translate(204,94)"/>
<path d="" fill="#FFFFFF" transform="translate(0,0)"/>
<path d="" fill="#FFFFFF" transform="translate(0,0)"/>
<path d="" fill="#FFFFFF" transform="translate(0,0)"/>
<path d="" fill="#FFFFFF" transform="translate(0,0)"/>
<path d="" fill="#FFFFFF" transform="translate(0,0)"/>
<path d="" fill="#FFFFFF" transform="translate(0,0)"/>
<path d="" fill="#FFFFFF" transform="translate(0,0)"/>
<path d="" fill="#FFFFFF" transform="translate(0,0)"/>
<path d="" fill="#FFFFFF" transform="translate(0,0)"/>
<path d="" fill="#FFFFFF" transform="translate(0,0)"/>
<path d="" fill="#FFFFFF" transform="translate(0,0)"/>
<path d="" fill="#FFFFFF" transform="translate(0,0)"/>
<path d="" fill="#FFFFFF" transform="translate(0,0)"/>
<path d="" fill="#FFFFFF" transform="translate(0,0)"/>
<path d="" fill="#FFFFFF" transform="translate(0,0)"/>
<path d="" fill="#FFFFFF" transform="translate(0,0)"/>
<path d="" fill="#FFFFFF" transform="translate(0,0)"/>
<path d="" fill="#FFFFFF" transform="translate(0,0)"/>
<path d="" fill="#FFFFFF" transform="translate(0,0)"/>
<path d="" fill="#FFFFFF" transform="translate(0,0)"/>
<path d="" fill="#FFFFFF" transform="translate(0,0)"/>
<path d="" fill="#FFFFFF" transform="translate(0,0)"/>
<path d="" fill="#FFFFFF" transform="translate(0,0)"/>
<path d="" fill="#FFFFFF" transform="translate(0,0)"/>
<path d="" fill="#FFFFFF" transform="translate(0,0)"/>
<path d="" fill="#FFFFFF" transform="translate(0,0)"/>
<path d="" fill="#FFFFFF" transform="translate(0,0)"/>
<path d="" fill="#FFFFFF" transform="translate(0,0)"/>
<path d="" fill="#FFFFFF" transform="translate(0,0)"/>
<path d="" fill="#FFFFFF" transform="translate(0,0)"/>
<path d="" fill="#FFFFFF" transform="translate(0,0)"/>
<path d="" fill="#FFFFFF" transform="translate(0,0)"/>
<path d="" fill="#FFFFFF" transform="translate(0,0)"/>
<path d="" fill="#FFFFFF" transform="translate(0,0)"/>
<path d="" fill="#FFFFFF" transform="translate(0,0)"/>
<path d="" fill="#FFFFFF" transform="translate(0,0)"/>
<path d="" fill="#FFFFFF" transform="translate(0,0)"/>
<path d="" fill="#FFFFFF" transform="translate(0,0)"/>
<path d="" fill="#FFFFFF" transform="translate(0,0)"/>
<path d="" fill="#FFFFFF" transform="translate(0,0)"/>
<path d="" fill="#FFFFFF" transform="translate(0,0)"/>
<path d="" fill="#FFFFFF" transform="translate(0,0)"/>
<path d="" fill="#FFFFFF" transform="translate(0,0)"/>
<path d="" fill="#FFFFFF" transform="translate(0,0)"/>
<path d="" fill="#FFFFFF" transform="translate(0,0)"/>
<path d="" fill="#FFFFFF" transform="translate(0,0)"/>
<path d="" fill="#FFFFFF" transform="translate(0,0)"/>
<path d="" fill="#FFFFFF" transform="translate(0,0)"/>
<path d="" fill="#FFFFFF" transform="translate(0,0)"/>
<path d="" fill="#FFFFFF" transform="translate(0,0)"/>
<path d="" fill="#FFFFFF" transform="translate(0,0)"/>
<path d="" fill="#FFFFFF" transform="translate(0,0)"/>
<path d="" fill="#FFFFFF" transform="translate(0,0)"/>
<path d="" fill="#FFFFFF" transform="translate(0,0)"/>
<path d="" fill="#FFFFFF" transform="translate(0,0)"/>
<path d="" fill="#FFFFFF" transform="translate(0,0)"/>
<path d="" fill="#FFFFFF" transform="translate(0,0)"/>
<path d="" fill="#FFFFFF" transform="translate(0,0)"/>
<path d="" fill="#FFFFFF" transform="translate(0,0)"/>
<path d="" fill="#FFFFFF" transform="translate(0,0)"/>
<path d="" fill="#FFFFFF" transform="translate(0,0)"/>
<path d="" fill="#FFFFFF" transform="translate(0,0)"/>
<path d="" fill="#FFFFFF" transform="translate(0,0)"/>
<path d="" fill="#FFFFFF" transform="translate(0,0)"/>
<path d="" fill="#FFFFFF" transform="translate(0,0)"/>
<path d="" fill="#FFFFFF" transform="translate(0,0)"/>
<path d="" fill="#FFFFFF" transform="translate(0,0)"/>
<path d="" fill="#FFFFFF" transform="translate(0,0)"/>
<path d="" fill="#FFFFFF" transform="translate(0,0)"/>
<path d="" fill="#FFFFFF" transform="translate(0,0)"/>
<path d="" fill="#FFFFFF" transform="translate(0,0)"/>
<path d="" fill="#FFFFFF" transform="translate(0,0)"/>
<path d="" fill="#FFFFFF" transform="translate(0,0)"/>
<path d="" fill="#FFFFFF" transform="translate(0,0)"/>
<path d="" fill="#FFFFFF" transform="translate(0,0)"/>
<path d="" fill="#FFFFFF" transform="translate(0,0)"/>
<path d="" fill="#FFFFFF" transform="translate(0,0)"/>
<path d="" fill="#FFFFFF" transform="translate(0,0)"/>
<path d="" fill="#FFFFFF" transform="translate(0,0)"/>
<path d="" fill="#FFFFFF" transform="translate(0,0)"/>
<path d="" fill="#FFFFFF" transform="translate(0,0)"/>
<path d="" fill="#FFFFFF" transform="translate(0,0)"/>
<path d="" fill="#FFFFFF" transform="translate(0,0)"/>
<path d="" fill="#FFFFFF" transform="translate(0,0)"/>
<path d="" fill="#FFFFFF" transform="translate(0,0)"/>
<path d="" fill="#FFFFFF" transform="translate(0,0)"/>
<path d="" fill="#FFFFFF" transform="translate(0,0)"/>
<path d="" fill="#FFFFFF" transform="translate(0,0)"/>
<path d="" fill="#FFFFFF" transform="translate(0,0)"/>
<path d="" fill="#FFFFFF" transform="translate(0,0)"/>
<path d="" fill="#FFFFFF" transform="translate(0,0)"/>
<path d="" fill="#FFFFFF" transform="translate(0,0)"/>
<path d="" fill="#FFFFFF" transform="translate(0,0)"/>
<path d="" fill="#FFFFFF" transform="translate(0,0)"/>
<path d="" fill="#FFFFFF" transform="translate(0,0)"/>
<path d="" fill="#FFFFFF" transform="translate(0,0)"/>
<path d="" fill="#FFFFFF" transform="translate(0,0)"/>
<path d="" fill="#FFFFFF" transform="translate(0,0)"/>
<path d="" fill="#FFFFFF" transform="translate(0,0)"/>
<path d="" fill="#FFFFFF" transform="translate(0,0)"/>
<path d="" fill="#FFFFFF" transform="translate(0,0)"/>
<path d="" fill="#FFFFFF" transform="translate(0,0)"/>
<path d="" fill="#FFFFFF" transform="translate(0,0)"/>
<path d="" fill="#FFFFFF" transform="translate(0,0)"/>
<path d="" fill="#FFFFFF" transform="translate(0,0)"/>
<path d="" fill="#FFFFFF" transform="translate(0,0)"/>
<path d="" fill="#FFFFFF" transform="translate(0,0)"/>
<path d="" fill="#FFFFFF" transform="translate(0,0)"/>
<path d="" fill="#FFFFFF" transform="translate(0,0)"/>
<path d="" fill="#FFFFFF" transform="translate(0,0)"/>
<path d="" fill="#FFFFFF" transform="translate(0,0)"/>
<path d="" fill="#FFFFFF" transform="translate(0,0)"/>
<path d="" fill="#FFFFFF" transform="translate(0,0)"/>
<path d="" fill="#FFFFFF" transform="translate(0,0)"/>
<path d="" fill="#FFFFFF" transform="translate(0,0)"/>
<path d="" fill="#FFFFFF" transform="translate(0,0)"/>
<path d="" fill="#FFFFFF" transform="translate(0,0)"/>
<path d="" fill="#FFFFFF" transform="translate(0,0)"/>
<path d="" fill="#FFFFFF" transform="translate(0,0)"/>
<path d="" fill="#FFFFFF" transform="translate(0,0)"/>
<path d="" fill="#FFFFFF" transform="translate(0,0)"/>
<path d="" fill="#FFFFFF" transform="translate(0,0)"/>
<path d="" fill="#FFFFFF" transform="translate(0,0)"/>
<path d="" fill="#FFFFFF" transform="translate(0,0)"/>
<path d="" fill="#FFFFFF" transform="translate(0,0)"/>
<path d="" fill="#FFFFFF" transform="translate(0,0)"/>
<path d="" fill="#FFFFFF" transform="translate(0,0)"/>
<path d="" fill="#FFFFFF" transform="translate(0,0)"/>
</svg>
